<?xml version="1.0" encoding="utf-8"?>
<!-- Generator: Adobe Illustrator 21.1.0, SVG Export Plug-In . SVG Version: 6.00 Build 0)  -->
<svg version="1.1" id="eae92b3c-f2dd-4107-b6f3-1e0441e28c2a"
	 xmlns="http://www.w3.org/2000/svg" xmlns:xlink="http://www.w3.org/1999/xlink" x="0px" y="0px" width="886.29501" height="670.66766" viewBox="0 0 886.3 670.7"
	 style="enable-background:new 0 0 886.3 670.7;" xml:space="preserve">
<style type="text/css">
	.st0{fill:#E6E6E6;}
	.st1{fill:#3F3D56;}
	.st2{fill:#FBBEBE;}
	.st3{fill:#2F2E41;}
	.st4{opacity:0.2;enable-background:new    ;}
	.st5{fill:#6C63FF;}
</style>
<title>redesign_feedback</title>
<path class="st0" d="M675.2,646.6c-0.1-0.2-3-4.9-3.9-14.7c-0.9-9-0.3-24.2,7.6-45.4c14.9-40.1-3.4-72.5-3.6-72.8l0.9-0.5
	c3.5,6.8,6.1,14,7.6,21.5c3.7,17.4,2.4,35.5-3.9,52.2c-14.9,40.1-3.8,59-3.7,59.2L675.2,646.6z"/>
<circle class="st1" cx="669.3" cy="504.5" r="6.8"/>
<circle class="st1" cx="690.8" cy="529.6" r="6.8"/>
<circle class="st0" cx="676.1" cy="546.3" r="6.8"/>
<circle class="st0" cx="693.9" cy="560.5" r="6.8"/>
<circle class="st1" cx="670.9" cy="582.4" r="6.8"/>
<path class="st0" d="M679.3,646.8c0,0-6.8-16.7,13.6-29.3L679.3,646.8z"/>
<path class="st0" d="M670.9,646.5c0,0-3.1-17.8-27.1-17.7L670.9,646.5z"/>
<ellipse class="st1" cx="717.9" cy="653.8" rx="167.6" ry="16.9"/>
<path class="st2" d="M746.9,346.1l-9.1,33.7c0,0-4.5,27.2,3.2,27.9c7.7,0.7,5.8-27.2,5.8-27.2l14.9-23.3L746.9,346.1z"/>
<path class="st3" d="M814.3,363.7v-10.6l-61.6-4.2l-9.7,62.2c0,0-1.3,62.1,3.2,93.7c4.5,31.6,13.6,105.6,13.6,105.6h41.5L791,456.8
	l46.7,153.8l48.6-5.9l-56.4-181.6C829.9,423.2,830.5,389.5,814.3,363.7z"/>
<path class="st3" d="M765,603.5l-2.6,20.1l-3.9,14.3c0,0-18.2,3.9-7.1,10.4c11.1,6.5,21.4,0,21.4,0l8.4-11.7v20.1h13v-28.5
	l-9.7-21.4L765,603.5z"/>
<path class="st3" d="M845.4,603.5l-2.6,20.1l-3.9,14.3c0,0-18.2,3.9-7.1,10.4s21.4,0,21.4,0l8.4-11.7v20.1h13v-28.5l-9.7-21.4
	L845.4,603.5z"/>
<circle class="st2" cx="788.7" cy="218.7" r="22"/>
<polygon class="st2" points="803.3,228.1 821.5,250.2 799.4,258.6 789,237.8 "/>
<path class="st0" d="M792.3,251.4l3.1-0.9c0,0,16.3-10.2,20.9-9.5c4.6,0.7,18.8,14.9,16.2,34.4s2.6,92.1-7.8,89.5
	c-10.4-2.6-13.6-4.5-13.6-4.5l-12.3-5.8l-11.7,3.2c0,0-7.1-4.5-13-3.2c-5.9,1.3-24.6-5.2-24.6-5.2L792.3,251.4z"/>
<path class="st0" d="M796.9,253.5c0,0-14.7-6.9-21.1,3.4c-6.4,10.3-24.6,65.5-24.6,65.5l-8.4,25.3l20.7,12.3l40.8-75.2
	C804.3,284.8,810.2,262.4,796.9,253.5z"/>
<path class="st3" d="M786.4,222.1c-1.4-2.1-0.7-5-1.7-7.4c-1.5-3.7-6.3-4.6-10.2-4.9c-2.6-0.3-5.3-0.3-7.9,0c-2.4,0.4-4.4,1.9-5.5,4
	c-0.6,1.2-0.4-2.5-0.1-7.3c0.8-9.9,7.9-18.2,17.6-20.5c0.1,0,0.1,0,0.2,0c4.8-1.1,9.8-1.9,14.8-1.4c5,0.5,9.9,2.7,12.9,6.6
	c1.4,1.8,2.4,3.9,4,5.5c2.8,2.9,6.9,3.9,10.6,5.3c4.3,1.4,8.3,3.7,11.6,6.7c3.4,3.1,5.4,7.4,5.6,11.9c0.1,5.3-3.3,10.7-8.7,11.7
	c-0.9,0.2-1.8,0.5-2.6,1.1c-5.2,4,0.7,8.2,0.7,12.7c0,3.8-4.2,6.2-8,6.4c-7.2,0.1-13.5-4.9-15.1-12c-0.6-3.1-0.1-6.2,0.2-9.4
	c0.4-3.6-7.2-11.9-2.2-5.8c1,1.2,1.7,2.6,1.9,4.1c0.8,4.9-3.6,6.6-6.4,9.3c-3.2,3.1-4.3,7.8-2.8,12c-4.8-4.3-5.8-11.5-2.4-17
	c0.9-1.4,2.1-2.6,2.9-4c1.3-2.2,1.7-7-2-6.9C791.3,223.1,788.5,225.3,786.4,222.1z"/>
<polygon class="st4" points="796.5,306.9 766.7,354.1 794.9,302.1 "/>
<rect x="552.7" y="603.9" class="st5" width="49" height="49"/>
<rect x="585.6" y="631.9" class="st0" width="24.5" height="24.5"/>
</svg>
