<?xml version="1.0" encoding="UTF-8"?>
<svg width="296px" height="230px" viewBox="0 0 296 230" version="1.1" xmlns="http://www.w3.org/2000/svg" xmlns:xlink="http://www.w3.org/1999/xlink">
    <!-- Generator: Sketch 64 (93537) - https://sketch.com -->
    <title>Path</title>
    <desc>Created with Sketch.</desc>
    <g id="Page-2" stroke="none" stroke-width="1" fill="none" fill-rule="evenodd">
        <g id="Artboard-Copy-2" transform="translate(-102.000000, -135.000000)" fill="#FFFFFF" fill-rule="nonzero">
            <polygon id="Path" points="172.480772 135 220.008608 210.104055 220.008608 275.000323 170.021965 274.999497 170.021965 304.99939 240.001881 304.99939 240.002869 175.000682 349.971308 175.000682 349.971308 245.000431 299.985665 244.999605 299.987665 284.107465 338.481617 344.999246 361.924888 344.999246 320.479296 278.666484 320.479296 264.999533 369.964581 264.999533 369.964581 155.499926 219.966143 155.499926 219.966143 172.999864 208.86333 155.499926 196.369916 135.499998 389.959831 135.500824 389.959831 285.000287 348.013881 284.999461 398 365 327.469675 365 279.994165 289.900935 279.990887 225.000503 329.976058 224.999677 329.976058 194.999785 259.996142 194.999785 259.997131 325.000144 150.028692 325.000144 150.028692 255.000395 200.013357 254.999569 200.013357 215.89471 161.517406 154.999928 138.073134 154.999928 179.519752 221.33269 179.519752 234.999641 130.033442 234.999641 130.033442 344.999246 279.946634 345.000014 279.948928 326.499312 291.1977 345.000072 303.691114 365 110.040169 365 110.040169 215.000539 151.985142 214.999713 102 135.000826"></polygon>
        </g>
    </g>
</svg>