<?xml version="1.0" encoding="UTF-8"?>
<svg width="33px" height="28px" viewBox="0 0 33 28" version="1.1" xmlns="http://www.w3.org/2000/svg" xmlns:xlink="http://www.w3.org/1999/xlink">
    <title>TD</title>
    <g id="Page-1" stroke="none" stroke-width="1" fill="none" fill-rule="evenodd">
        <g id="Apple-TV" transform="translate(-380.000000, -22.000000)" fill="#000" fill-rule="nonzero">
            <g id="Group-4">
                <path d="M393.385677,50 L393.385677,26.6923077 L393.385677,22 L380,22 L380,26.2115385 L388.652191,26.2115385 L388.652191,50 L393.385677,50 Z M398.586148,50 C400.616632,50 402.517786,49.6602564 404.28961,48.9807692 C406.100233,48.2884615 407.648963,47.3301282 408.935798,46.1057692 C410.222634,44.8814103 411.228176,43.3974359 411.952425,41.6538462 C412.650808,39.9615385 413,38.1538462 413,36.2307692 L413,35.8269231 C413,33.9166667 412.644342,32.1153846 411.933026,30.4230769 C411.195844,28.6794872 410.187068,27.1794872 408.906699,25.9230769 C407.613397,24.6923077 406.061434,23.724359 404.250811,23.0192308 C402.504853,22.3397436 400.648965,22 398.683146,22 L388.614789,22 L388.614789,50 L398.586148,50 Z M393.348274,45.7884615 L393.348274,26.2115385 L398.469751,26.2115385 C401.340882,26.2115385 403.620326,27.1057692 405.308086,28.8942308 C406.995845,30.6826923 407.839725,33.0576923 407.839725,36.0192308 C407.839725,39.0192308 407.005545,41.3974359 405.337185,43.1538462 C403.668825,44.9102564 401.379681,45.7884615 398.469751,45.7884615 L393.348274,45.7884615 Z" id="TD"></path>
            </g>
        </g>
    </g>
</svg>