<?xml version="1.0" encoding="UTF-8"?>
<svg width="2425px" height="248px" viewBox="0 0 2425 248" version="1.1" xmlns="http://www.w3.org/2000/svg" xmlns:xlink="http://www.w3.org/1999/xlink">
    <!-- Generator: Sketch 64 (93537) - https://sketch.com -->
    <title>Combined Shape</title>
    <desc>Created with Sketch.</desc>
    <g id="Page-2" stroke="none" stroke-width="1" fill="none" fill-rule="evenodd">
        <g id="Artboard-Copy-4" transform="translate(-127.000000, -120.000000)" fill="#FFFFFF" fill-rule="nonzero">
            <path d="M1430.76163,203.3125 C1442.83235,203.3125 1454.20255,205.25 1464.87221,209.125 C1475.54188,213 1484.81047,218.543403 1492.678,225.755208 C1500.54553,232.967014 1506.74256,241.631944 1511.26908,251.75 C1515.7956,261.868056 1518.05887,273.170139 1518.05887,285.65625 C1518.05887,298.142361 1515.7956,309.444444 1511.26908,319.5625 C1506.74256,329.680556 1500.54553,338.345486 1492.678,345.557292 C1484.81047,352.769097 1475.54188,358.3125 1464.87221,362.1875 C1454.20255,366.0625 1442.83235,368 1430.76163,368 C1418.6909,368 1407.3207,366.0625 1396.65104,362.1875 C1385.98137,358.3125 1376.71278,352.769097 1368.84525,345.557292 C1360.97772,338.345486 1354.78069,329.680556 1350.25417,319.5625 C1345.72765,309.444444 1343.46438,298.142361 1343.46438,285.65625 C1343.46438,273.170139 1345.72765,261.868056 1350.25417,251.75 C1354.78069,241.631944 1360.97772,232.967014 1368.84525,225.755208 C1376.71278,218.543403 1385.98137,213 1396.65104,209.125 C1407.3207,205.25 1418.6909,203.3125 1430.76163,203.3125 Z M856.889489,203.3125 C866.158085,203.3125 875.911666,204.873264 886.150231,207.994792 C896.388797,211.116319 905.280182,216.552083 912.824388,224.302083 L912.824388,224.302083 L880.8154,257.885417 L880.52622,257.474925 C878.175531,254.213725 874.930919,251.498125 870.792383,249.328125 C866.481408,247.067708 861.84711,245.9375 856.889489,245.9375 C844.603211,245.9375 835.065179,249.597222 828.275394,256.916667 C821.485608,264.236111 818.090715,273.815972 818.090715,285.65625 C818.090715,297.496528 821.485608,307.076389 828.275394,314.395833 C835.065179,321.715278 844.603211,325.375 856.889489,325.375 C862.278208,325.375 866.912506,324.190972 870.792383,321.822917 C874.672261,319.454861 878.013266,316.65625 880.8154,313.427083 L880.8154,313.427083 L912.824388,347.010417 L912.295862,347.547359 C904.865901,355.011991 896.15069,360.268774 886.150231,363.317708 C875.911666,366.439236 866.158085,368 856.889489,368 C844.81876,368 833.448563,366.0625 822.778901,362.1875 C812.109238,358.3125 802.840642,352.769097 794.973113,345.557292 C787.105584,338.345486 780.908557,329.680556 776.382034,319.5625 C771.85551,309.444444 769.592248,298.142361 769.592248,285.65625 C769.592248,273.170139 771.85551,261.868056 776.382034,251.75 C780.908557,241.631944 787.105584,232.967014 794.973113,225.755208 C802.840642,218.543403 812.109238,213 822.778901,209.125 C833.448563,205.25 844.81876,203.3125 856.889489,203.3125 Z M1590.47665,203.3125 C1600.82299,203.3125 1611.2771,204.819444 1621.83899,207.833333 C1632.40088,210.847222 1641.34615,216.229167 1648.67481,223.979167 L1648.67481,223.979167 L1618.92908,253.364583 L1618.57743,252.934057 C1611.50794,244.394686 1602.24879,240.125 1590.79997,240.125 C1586.70454,240.125 1582.71689,241.09375 1578.83701,243.03125 C1574.95714,244.96875 1573.0172,248.305556 1573.0172,253.041667 C1573.0172,256.916667 1575.01102,259.769097 1578.99868,261.598958 C1582.98633,263.428819 1588.05172,265.043403 1594.19486,266.442708 C1600.338,267.842014 1606.91224,269.348958 1613.91757,270.963542 C1620.92291,272.578125 1627.49714,275.107639 1633.64028,278.552083 C1639.78342,281.996528 1644.84882,286.678819 1648.83647,292.598958 C1652.82412,298.519097 1654.81795,306.430556 1654.81795,316.333333 C1654.81795,326.451389 1652.60857,334.793403 1648.18982,341.359375 C1643.77107,347.925347 1638.11292,353.199653 1631.21536,357.182292 C1624.3178,361.164931 1616.55804,363.963542 1607.93609,365.578125 C1599.31414,367.192708 1590.79997,368 1582.39357,368 C1571.40058,368 1560.29982,366.439236 1549.09129,363.317708 C1537.88275,360.196181 1528.39861,354.652778 1520.63885,346.6875 L1520.63885,346.6875 L1550.06126,314.072917 L1550.5481,314.667471 C1554.94636,319.972118 1559.79559,324.02567 1565.09578,326.828125 C1570.59227,329.734375 1577.00485,331.1875 1584.33351,331.1875 C1589.93777,331.1875 1595.00317,330.380208 1599.52969,328.765625 C1604.05622,327.151042 1606.31948,324.190972 1606.31948,319.885417 C1606.31948,315.795139 1604.32565,312.727431 1600.338,310.682292 C1596.35035,308.637153 1591.28495,306.914931 1585.14181,305.515625 C1578.99868,304.116319 1572.42444,302.609375 1565.4191,300.994792 C1558.41377,299.380208 1551.83953,296.958333 1545.69639,293.729167 C1539.55326,290.5 1534.48786,285.925347 1530.50021,280.005208 C1526.51256,274.085069 1524.51873,266.173611 1524.51873,256.270833 C1524.51873,247.013889 1526.40478,239.048611 1530.17688,232.375 C1533.94899,225.701389 1538.90661,220.211806 1545.04975,215.90625 C1551.19289,211.600694 1558.25211,208.425347 1566.22741,206.380208 C1574.20272,204.335069 1582.28579,203.3125 1590.47665,203.3125 Z M1745.66514,203.3125 C1756.87368,203.3125 1767.05836,205.25 1776.21918,209.125 C1785.38,213 1793.13975,218.543403 1799.49844,225.755208 C1805.85713,232.967014 1810.76086,241.631944 1814.20964,251.75 C1817.65842,261.868056 1819.38281,273.170139 1819.38281,285.65625 L1819.38281,285.65625 L1819.38281,300.833333 L1706.86637,300.833333 L1706.99905,301.447672 C1708.99423,310.417048 1713.15321,317.585532 1719.47597,322.953125 C1725.94243,328.442708 1733.91774,331.1875 1743.40188,331.1875 C1751.37718,331.1875 1758.11308,329.411458 1763.60958,325.859375 C1769.10607,322.307292 1773.90203,317.732639 1777.99745,312.135417 L1777.99745,312.135417 L1811.94638,337 L1811.43741,337.642629 C1803.75925,347.233986 1794.12144,354.662138 1782.52398,359.927083 C1770.6688,365.309028 1758.38252,368 1745.66514,368 C1733.59441,368 1722.22422,366.0625 1711.55455,362.1875 C1700.88489,358.3125 1691.6163,352.769097 1683.74877,345.557292 C1675.88124,338.345486 1669.68421,329.680556 1665.15769,319.5625 C1660.63116,309.444444 1658.3679,298.142361 1658.3679,285.65625 C1658.3679,273.170139 1660.63116,261.868056 1665.15769,251.75 C1669.68421,241.631944 1675.88124,232.967014 1683.74877,225.755208 C1691.6163,218.543403 1700.88489,213 1711.55455,209.125 C1722.22422,205.25 1733.59441,203.3125 1745.66514,203.3125 Z M2166.29532,120 L2166.29532,364.125 L2121.67673,364.125 L2121.67673,343.458333 L2121.03008,343.458333 L2120.6594,343.983704 C2118.77124,346.613708 2116.36211,349.291016 2113.43199,352.015625 C2110.30653,354.921875 2106.6422,357.559028 2102.439,359.927083 C2098.2358,362.295139 2093.6015,364.232639 2088.53611,365.739583 C2083.47071,367.246528 2078.24366,368 2072.85494,368 C2061.21531,368 2050.65342,366.008681 2041.16927,362.026042 C2031.68513,358.043403 2023.54816,352.446181 2016.75838,345.234375 C2009.96859,338.022569 2004.74154,329.465278 2001.07721,319.5625 C1997.41288,309.659722 1995.58071,298.788194 1995.58071,286.947917 C1995.58071,275.96875 1997.25122,265.473958 2000.59222,255.463542 C2003.93323,245.453125 2008.6753,236.572917 2014.81844,228.822917 C2020.96158,221.072917 2028.4519,214.883681 2037.2894,210.255208 C2046.12689,205.626736 2056.14991,203.3125 2067.35845,203.3125 C2077.48924,203.3125 2086.91949,204.873264 2095.64922,207.994792 C2104.37894,211.116319 2111.54594,216.444444 2117.15021,223.979167 L2117.15021,223.979167 L2117.79685,223.979167 L2117.79685,120 L2166.29532,120 Z M2260.05242,203.3125 C2274.27864,203.3125 2285.97216,205.088542 2295.13298,208.640625 C2304.2938,212.192708 2311.62246,217.413194 2317.11895,224.302083 C2322.61545,231.190972 2326.44144,239.640625 2328.59692,249.651042 C2330.75241,259.661458 2331.83016,271.232639 2331.83016,284.364583 L2331.83016,284.364583 L2331.83016,364.125 L2287.21157,364.125 L2287.21157,344.427083 L2286.56492,344.427083 L2286.20304,344.983297 C2280.85679,353.089648 2273.81042,358.932022 2265.06393,362.510417 C2256.11866,366.170139 2246.6884,368 2236.77316,368 C2229.4445,368 2222.38528,366.977431 2215.5955,364.932292 C2208.80571,362.887153 2202.82423,359.819444 2197.65106,355.729167 C2192.47789,351.638889 2188.38247,346.579861 2185.36478,340.552083 C2182.3471,334.524306 2180.83826,327.527778 2180.83826,319.5625 C2180.83826,310.520833 2182.50876,302.878472 2185.84977,296.635417 C2189.19077,290.392361 2193.7173,285.225694 2199.42934,281.135417 C2205.14138,277.045139 2211.66173,273.869792 2218.99039,271.609375 C2226.31905,269.348958 2233.91714,267.680556 2241.78467,266.604167 C2249.6522,265.527778 2257.51973,264.881944 2265.38726,264.666667 C2273.25478,264.451389 2280.52955,264.34375 2287.21157,264.34375 C2287.21157,255.732639 2284.14,248.897569 2277.99686,243.838542 C2271.85372,238.779514 2264.57895,236.25 2256.17255,236.25 C2248.19724,236.25 2240.92247,237.918403 2234.34824,241.255208 C2227.774,244.592014 2221.9003,249.166667 2216.72713,254.979167 L2216.72713,254.979167 L2190.86128,228.5 L2191.52639,227.889417 C2200.43044,219.798251 2210.77062,213.704903 2222.54694,209.609375 C2234.61767,205.411458 2247.1195,203.3125 2260.05242,203.3125 Z M2417.18086,203.3125 C2431.40708,203.3125 2443.1006,205.088542 2452.26142,208.640625 C2461.42224,212.192708 2468.7509,217.413194 2474.24739,224.302083 C2479.74388,231.190972 2483.56987,239.640625 2485.72536,249.651042 C2487.88085,259.661458 2488.95859,271.232639 2488.95859,284.364583 L2488.95859,284.364583 L2488.95859,364.125 L2444.34,364.125 L2444.34,344.427083 L2443.69335,344.427083 L2443.33147,344.983297 C2437.98522,353.089648 2430.93886,358.932022 2422.19237,362.510417 C2413.24709,366.170139 2403.81684,368 2393.9016,368 C2386.57294,368 2379.51372,366.977431 2372.72393,364.932292 C2365.93415,362.887153 2359.95267,359.819444 2354.7795,355.729167 C2349.60633,351.638889 2345.5109,346.579861 2342.49322,340.552083 C2339.47554,334.524306 2337.9667,327.527778 2337.9667,319.5625 C2337.9667,310.520833 2339.6372,302.878472 2342.9782,296.635417 C2346.31921,290.392361 2350.84573,285.225694 2356.55778,281.135417 C2362.26982,277.045139 2368.79017,273.869792 2376.11882,271.609375 C2383.44748,269.348958 2391.04557,267.680556 2398.9131,266.604167 C2406.78063,265.527778 2414.64816,264.881944 2422.51569,264.666667 C2430.38322,264.451389 2437.65799,264.34375 2444.34,264.34375 C2444.34,255.732639 2441.26843,248.897569 2435.12529,243.838542 C2428.98215,238.779514 2421.70738,236.25 2413.30098,236.25 C2405.32568,236.25 2398.05091,237.918403 2391.47667,241.255208 C2384.90244,244.592014 2379.02873,249.166667 2373.85556,254.979167 L2373.85556,254.979167 L2347.98971,228.5 L2348.65482,227.889417 C2357.55887,219.798251 2367.89906,213.704903 2379.67538,209.609375 C2391.74611,205.411458 2404.24793,203.3125 2417.18086,203.3125 Z M197.480772,135 L245.008608,210.104055 L245.008608,275.000323 L195.021965,274.999497 L195.021965,304.99939 L265.001881,304.99939 L265.002869,175.000682 L374.971308,175.000682 L374.971308,245.000431 L324.985665,244.999605 L324.987665,284.107465 L363.481617,344.999246 L386.924888,344.999246 L345.479296,278.666484 L345.479296,264.999533 L394.964581,264.999533 L394.964581,155.499926 L244.966143,155.499926 L244.966143,172.999864 L233.86333,155.499926 L221.369916,135.5 L414.959831,135.500824 L414.959831,285.000287 L373.013881,284.999461 L423,365 L352.469675,365 L304.994165,289.900935 L304.990887,225.000503 L354.976058,224.999677 L354.976058,194.999785 L284.996142,194.999785 L284.997131,325.000144 L175.028692,325.000144 L175.028692,255.000395 L225.013357,254.999569 L225.013357,215.89471 L186.517406,154.999928 L163.073134,154.999928 L204.519752,221.33269 L204.519752,234.999641 L155.033442,234.999641 L155.033442,344.999246 L304.946634,345.000014 L304.948928,326.499312 L316.1977,345.000072 L328.691114,365 L135.040169,365 L135.040169,215.000539 L176.985142,214.999713 L127,135 L197.480772,135 Z M608.590534,135.5 L609.881387,135.504651 C621.04764,135.585269 631.664228,136.713927 641.731153,138.890625 C652.185267,141.151042 661.346089,144.918403 669.213618,150.192708 C677.081147,155.467014 683.33206,162.571181 687.966358,171.505208 C692.600656,180.439236 694.917805,191.579861 694.917805,204.927083 C694.917805,221.072917 690.714605,234.796875 682.308204,246.098958 C673.901803,257.401042 661.615524,264.559028 645.449369,267.572917 L645.449369,267.572917 L703.647529,364.125 L643.186107,364.125 L595.334286,272.739583 L570.438406,272.739583 L570.438406,364.125 L520,364.125 L520,135.5 L608.590534,135.5 Z M1925.4262,203.3125 C1937.71247,203.3125 1947.62772,205.196181 1955.17192,208.963542 C1962.71613,212.730903 1968.58983,217.951389 1972.79303,224.625 C1976.99623,231.298611 1979.85225,239.15625 1981.3611,248.197917 C1982.86994,257.239583 1983.62436,267.034722 1983.62436,277.583333 L1983.62436,277.583333 L1983.62436,364.125 L1935.12589,364.125 L1935.12589,287.270833 L1935.1199,285.757909 C1935.08797,281.707497 1934.9283,277.529514 1934.64091,273.223958 C1934.31758,268.380208 1933.34761,263.913194 1931.731,259.822917 C1930.11438,255.732639 1927.63557,252.395833 1924.29457,249.8125 C1920.95356,247.229167 1916.1576,245.9375 1909.90669,245.9375 C1903.65577,245.9375 1898.59038,247.067708 1894.7105,249.328125 C1890.83062,251.588542 1887.86683,254.602431 1885.81911,258.369792 C1883.7714,262.137153 1882.42422,266.388889 1881.77758,271.125 C1881.13093,275.861111 1880.80761,280.8125 1880.80761,285.979167 L1880.80761,285.979167 L1880.80761,364.125 L1832.30914,364.125 L1832.30914,207.1875 L1878.86767,207.1875 L1878.86767,228.5 L1879.51431,228.5 L1879.78729,227.968137 C1881.27898,225.131536 1883.34347,222.294935 1885.98078,219.458333 C1888.78291,216.444444 1892.12392,213.753472 1896.00379,211.385417 C1899.88367,209.017361 1904.30242,207.079861 1909.26004,205.572917 C1914.21766,204.065972 1919.60638,203.3125 1925.4262,203.3125 Z M2552,120 L2552,364.125 L2503.50153,364.125 L2503.50153,120 L2552,120 Z M756.019276,207.1875 L756.019276,364.125 L707.520808,364.125 L707.520808,207.1875 L756.019276,207.1875 Z M962.286226,120 L962.286226,269.1875 L1015.95786,207.1875 L1075.44932,207.1875 L1013.04796,277.90625 L1077.06593,364.125 L1015.95786,364.125 L962.932873,284.6875 L962.286226,284.6875 L962.286226,364.125 L913.787759,364.125 L913.787759,120 L962.286226,120 Z M1251.00057,135.5 L1252.29142,135.504651 C1263.45768,135.585269 1274.07427,136.713927 1284.14119,138.890625 C1294.5953,141.151042 1303.75613,144.918403 1311.62366,150.192708 C1319.49118,155.467014 1325.7421,162.571181 1330.3764,171.505208 C1335.01069,180.439236 1337.32784,191.579861 1337.32784,204.927083 C1337.32784,221.072917 1333.12464,234.796875 1324.71824,246.098958 C1316.31184,257.401042 1304.02556,264.559028 1287.85941,267.572917 L1287.85941,267.572917 L1346.05757,364.125 L1285.59614,364.125 L1237.74432,272.739583 L1212.84844,272.739583 L1212.84844,364.125 L1162.41004,364.125 L1162.41004,135.5 L1251.00057,135.5 Z M2444.34,295.34375 L2432.37705,295.34375 L2431.87169,295.344751 C2428.29442,295.358762 2423.88247,295.519886 2418.63581,295.828125 C2413.13932,296.151042 2407.85838,297.065972 2402.79298,298.572917 C2397.72759,300.079861 2393.41661,302.340278 2389.86006,305.354167 C2386.3035,308.368056 2384.52522,312.565972 2384.52522,317.947917 C2384.52522,323.760417 2387.00404,328.065972 2391.96166,330.864583 C2396.91928,333.663194 2402.09245,335.0625 2407.48117,335.0625 C2412.22324,335.0625 2416.80365,334.416667 2421.2224,333.125 C2425.64115,331.833333 2429.57491,330.003472 2433.02369,327.635417 C2436.47247,325.267361 2439.22072,322.253472 2441.26843,318.59375 C2443.31614,314.934028 2444.34,310.628472 2444.34,305.677083 L2444.34,305.677083 L2444.34,295.34375 Z M2287.21157,295.34375 L2275.24861,295.34375 L2274.74325,295.344751 C2271.16599,295.358762 2266.75403,295.519886 2261.50738,295.828125 C2256.01088,296.151042 2250.72994,297.065972 2245.66455,298.572917 C2240.59915,300.079861 2236.28817,302.340278 2232.73162,305.354167 C2229.17507,308.368056 2227.39679,312.565972 2227.39679,317.947917 C2227.39679,323.760417 2229.8756,328.065972 2234.83322,330.864583 C2239.79084,333.663194 2244.96401,335.0625 2250.35273,335.0625 C2255.0948,335.0625 2259.67521,334.416667 2264.09396,333.125 C2268.51271,331.833333 2272.44648,330.003472 2275.89526,327.635417 C2279.34404,325.267361 2282.09228,322.253472 2284.14,318.59375 C2286.18771,314.934028 2287.21157,310.628472 2287.21157,305.677083 L2287.21157,305.677083 L2287.21157,295.34375 Z M1430.76163,245.9375 C1418.47535,245.9375 1408.93731,249.597222 1402.14753,256.916667 C1395.35774,264.236111 1391.96285,273.815972 1391.96285,285.65625 C1391.96285,297.496528 1395.35774,307.076389 1402.14753,314.395833 C1408.93731,321.715278 1418.47535,325.375 1430.76163,325.375 C1443.0479,325.375 1452.58594,321.715278 1459.37572,314.395833 C1466.16551,307.076389 1469.5604,297.496528 1469.5604,285.65625 C1469.5604,273.815972 1466.16551,264.236111 1459.37572,256.916667 C1452.58594,249.597222 1443.0479,245.9375 1430.76163,245.9375 Z M2082.87796,245.9375 C2070.59168,245.9375 2061.05364,249.597222 2054.26386,256.916667 C2047.47407,264.236111 2044.07918,273.815972 2044.07918,285.65625 C2044.07918,297.496528 2047.47407,307.076389 2054.26386,314.395833 C2061.05364,321.715278 2070.59168,325.375 2082.87796,325.375 C2095.16423,325.375 2104.70227,321.715278 2111.49205,314.395833 C2118.28184,307.076389 2121.67673,297.496528 2121.67673,285.65625 C2121.67673,273.815972 2118.28184,264.236111 2111.49205,256.916667 C2104.70227,249.597222 2095.16423,245.9375 2082.87796,245.9375 Z M1741.13862,238.1875 C1735.7499,238.1875 1731.00783,239.048611 1726.9124,240.770833 C1722.81698,242.493056 1719.31431,244.699653 1716.4044,247.390625 C1713.49449,250.081597 1711.23123,253.203125 1709.61462,256.755208 C1707.998,260.307292 1707.08192,264.020833 1706.86637,267.895833 L1706.86637,267.895833 L1770.88435,267.895833 C1771.09989,259.715278 1768.40554,252.71875 1762.80127,246.90625 C1757.197,241.09375 1749.97612,238.1875 1741.13862,238.1875 Z M1245.8274,178.125 L1212.84844,178.125 L1212.84844,230.114583 L1242.59417,230.114583 C1247.12069,230.114583 1251.91665,229.953125 1256.98205,229.630208 C1262.04744,229.307292 1266.62786,228.338542 1270.72328,226.723958 C1274.81871,225.109375 1278.2136,222.579861 1280.90796,219.135417 C1283.60232,215.690972 1284.9495,210.847222 1284.9495,204.604167 C1284.9495,198.791667 1283.76398,194.163194 1281.39294,190.71875 C1279.02191,187.274306 1276.00423,184.637153 1272.3399,182.807292 C1268.67557,180.977431 1264.47237,179.739583 1259.7303,179.09375 C1254.98822,178.447917 1250.35393,178.125 1245.8274,178.125 L1245.8274,178.125 Z M603.417364,178.125 L570.438406,178.125 L570.438406,230.114583 L600.184133,230.114583 C604.710656,230.114583 609.506616,229.953125 614.572011,229.630208 C619.637407,229.307292 624.217817,228.338542 628.313244,226.723958 C632.40867,225.109375 635.803562,222.579861 638.497922,219.135417 C641.192281,215.690972 642.539461,210.847222 642.539461,204.604167 C642.539461,198.791667 641.353943,194.163194 638.982906,190.71875 C636.61187,187.274306 633.594188,184.637153 629.929859,182.807292 C626.265531,180.977431 622.06233,179.739583 617.320258,179.09375 C612.578185,178.447917 607.943887,178.125 603.417364,178.125 L603.417364,178.125 Z M731.770042,129.6875 C739.529797,129.6875 746.157921,132.432292 751.654414,137.921875 C757.150907,143.411458 759.899153,150.03125 759.899153,157.78125 C759.899153,165.53125 757.150907,172.151042 751.654414,177.640625 C746.157921,183.130208 739.529797,185.875 731.770042,185.875 C724.010287,185.875 717.382163,183.130208 711.88567,177.640625 C706.389178,172.151042 703.640931,165.53125 703.640931,157.78125 C703.640931,150.03125 706.389178,143.411458 711.88567,137.921875 C717.382163,132.432292 724.010287,129.6875 731.770042,129.6875 Z" id="Combined-Shape"></path>
        </g>
    </g>
</svg>